<svg width="289" height="217" viewBox="0 0 289 217" fill="none" xmlns="http://www.w3.org/2000/svg">
<path d="M44.6184 187.875C44.6184 189.842 43.0446 191.44 41.105 191.44C39.1655 191.44 37.5916 189.842 37.5916 187.875C37.5916 185.908 39.1655 184.31 41.105 184.31C43.0446 184.31 44.6184 185.908 44.6184 187.875Z" stroke="white" stroke-width="0.829833" stroke-miterlimit="10"/>
<path d="M277.201 113.441C277.201 115.408 275.628 117.006 273.688 117.006C271.748 117.006 270.175 115.408 270.175 113.441C270.175 111.473 271.748 109.876 273.688 109.876C275.628 109.876 277.201 111.469 277.201 113.441Z" stroke="white" stroke-width="0.829833" stroke-miterlimit="10"/>
<path d="M165.737 73.9582C165.737 75.393 164.592 76.5535 163.177 76.5535C161.762 76.5535 160.618 75.389 160.618 73.9582C160.618 72.5274 161.762 71.3629 163.177 71.3629C164.592 71.3629 165.737 72.5234 165.737 73.9582Z" stroke="white" stroke-width="0.829833" stroke-miterlimit="10"/>
<path d="M283.489 209.448H259.483C258.804 209.448 258.251 208.896 258.251 208.216C258.251 207.537 258.804 206.984 259.483 206.984H283.489C284.169 206.984 284.721 207.537 284.721 208.216C284.717 208.9 284.169 209.448 283.489 209.448Z" fill="#EDCDA4"/>
<path d="M268.879 81.6448H260.294C259.614 81.6448 259.062 81.0924 259.062 80.4128C259.062 79.7331 259.614 79.1807 260.294 79.1807H268.879C269.558 79.1807 270.111 79.7331 270.111 80.4128C270.111 81.0924 269.558 81.6448 268.879 81.6448Z" fill="#EDCDA4"/>
<path d="M286.907 144.776H282.901C282.233 144.776 281.693 144.235 281.693 143.567V139.764C281.693 139.096 282.233 138.556 282.901 138.556H286.907C287.575 138.556 288.115 139.096 288.115 139.764V143.567C288.115 144.235 287.571 144.776 286.907 144.776Z" fill="#CB94FF"/>
<path d="M54.7812 94.4189H50.7749C50.1072 94.4189 49.5667 93.8783 49.5667 93.2106V89.407C49.5667 88.7393 50.1072 88.1988 50.7749 88.1988H54.7812C55.4489 88.1988 55.9894 88.7393 55.9894 89.407V93.2106C55.9894 93.8783 55.4489 94.4189 54.7812 94.4189Z" fill="#CB94FF"/>
<path d="M202.815 198.435L206.841 213.502L209.588 210.021L214.305 216.134L218.228 213.037L213.045 207L217.091 204.608L202.815 198.435Z" fill="white"/>
<path d="M253.541 184.751H84.2043C83.0954 184.751 82.1932 183.849 82.1932 182.74V95.79C82.1932 94.6811 83.0954 93.7789 84.2043 93.7789H253.545C254.654 93.7789 255.556 94.6811 255.556 95.79V182.736C255.552 183.849 254.654 184.751 253.541 184.751Z" fill="#F1F1F1"/>
<path d="M255.552 104.792H82.1932V95.4244C82.1932 94.5142 82.9285 93.7789 83.8387 93.7789H253.907C254.817 93.7789 255.552 94.5142 255.552 95.4244V104.792Z" fill="#EAD4BA"/>
<path d="M93.8822 99.6652C93.8822 100.583 93.139 101.323 92.2249 101.323C91.3068 101.323 90.5675 100.579 90.5675 99.6652C90.5675 98.7511 91.3107 98.0079 92.2249 98.0079C93.139 98.0079 93.8822 98.7511 93.8822 99.6652Z" fill="white"/>
<path d="M100.329 99.6652C100.329 100.583 99.5855 101.323 98.6714 101.323C97.7533 101.323 97.014 100.579 97.014 99.6652C97.014 98.7511 97.7573 98.0079 98.6714 98.0079C99.5855 98.0079 100.329 98.7511 100.329 99.6652Z" fill="white"/>
<path d="M106.779 99.6652C106.779 100.583 106.036 101.323 105.122 101.323C104.208 101.323 103.465 100.579 103.465 99.6652C103.465 98.7511 104.208 98.0079 105.122 98.0079C106.036 98.0079 106.779 98.7511 106.779 99.6652Z" fill="white"/>
<path d="M235.04 160.542H192.831C190.792 160.542 189.143 158.889 189.143 156.854V124.84C189.143 122.801 190.796 121.151 192.831 121.151H235.04C237.079 121.151 238.729 122.805 238.729 124.84V156.854C238.729 158.889 237.075 160.542 235.04 160.542Z" stroke="#FBE0D4" stroke-width="0.397449" stroke-miterlimit="10"/>
<path d="M64.8963 142.717H39.7259C38.6369 142.717 37.7545 141.835 37.7545 140.746V115.575C37.7545 114.486 38.6369 113.604 39.7259 113.604H64.8963C65.9853 113.604 66.8676 114.486 66.8676 115.575V140.746C66.8676 141.835 65.9853 142.717 64.8963 142.717Z" fill="#7F63FF"/>
<path d="M236.67 113.659H191.706C190.347 113.659 189.246 112.558 189.246 111.199V71.6769C189.246 70.3176 190.347 69.2166 191.706 69.2166H236.67C238.029 69.2166 239.13 70.3176 239.13 71.6769V111.199C239.13 112.558 238.025 113.659 236.67 113.659Z" fill="#FE6F3F"/>
<path d="M204.715 91.438H222.222" stroke="white" stroke-width="0.498719" stroke-miterlimit="10"/>
<path d="M196.659 96.8433H222.222" stroke="white" stroke-width="0.498719" stroke-miterlimit="10"/>
<path d="M196.659 84.4588H232.989" stroke="white" stroke-width="0.498719" stroke-miterlimit="10"/>
<path d="M196.174 103.059H207.104" stroke="white" stroke-width="0.498719" stroke-miterlimit="10"/>
<path d="M210.378 103.059H232.989" stroke="white" stroke-width="0.498719" stroke-miterlimit="10"/>
<path d="M196.174 91.438H201.062" stroke="white" stroke-width="0.498719" stroke-miterlimit="10"/>
<path d="M210.144 78.6878H222.223" stroke="white" stroke-width="0.498719" stroke-miterlimit="10"/>
<path d="M274.71 185.792H223.017V156.075C223.017 154.752 224.09 153.674 225.418 153.674H272.313C273.636 153.674 274.713 154.748 274.713 156.075V185.792H274.71Z" fill="#7F63FF"/>
<path d="M245.068 169.708C246.927 169.708 248.434 168.2 248.434 166.341C248.434 164.482 246.927 162.975 245.068 162.975C243.209 162.975 241.701 164.482 241.701 166.341C241.701 168.2 243.209 169.708 245.068 169.708Z" fill="white"/>
<path d="M66.0132 134.768H39.5431V120.718C39.5431 119.395 40.6162 118.317 41.9437 118.317H63.6166C64.9401 118.317 66.0172 119.391 66.0172 120.718V134.768H66.0132Z" fill="#7F63FF"/>
<path d="M39.5431 134.207L45.9301 128.969L51.3473 132.983L58.8869 125.456L66.0172 131.417V136.723C66.0172 137.427 65.4448 137.999 64.7413 137.999H40.8189C40.1154 137.999 39.5431 137.427 39.5431 136.723V134.207Z" fill="#FFD446"/>
<path d="M50.8345 126.529C51.7872 126.529 52.5595 125.756 52.5595 124.804C52.5595 123.851 51.7872 123.079 50.8345 123.079C49.8819 123.079 49.1096 123.851 49.1096 124.804C49.1096 125.756 49.8819 126.529 50.8345 126.529Z" fill="white"/>
<path d="M144.366 212.402H62.1023C60.755 212.402 59.662 211.309 59.662 209.961V160.936C59.662 159.589 60.755 158.496 62.1023 158.496H144.366C145.714 158.496 146.807 159.589 146.807 160.936V209.965C146.807 211.309 145.714 212.402 144.366 212.402Z" fill="#EAD4BA"/>
<path d="M184.453 185.852L176.369 191.913L166.353 179.127L174.437 173.066L184.453 185.852Z" fill="#FDB5AE"/>
<path d="M173.32 190.276L184.163 182.144C184.163 182.144 186.106 184.358 189.806 182.144C193.511 179.93 196.762 180.316 198.86 182.549L177.362 198.67C177.366 198.674 175.375 195.649 173.32 190.276Z" fill="white"/>
<path d="M198.87 182.56L177.37 198.68L178.522 200.216L200.022 184.096L198.87 182.56Z" fill="#01021F"/>
<path d="M175.105 194.469C175.105 194.469 179.489 191.83 182.009 195.192" stroke="#01021F" stroke-width="0.392759" stroke-miterlimit="10"/>
<path d="M186.587 183.177C186.587 183.177 180.24 180.296 179.159 183.233C177.883 186.695 186.587 183.177 186.587 183.177Z" stroke="#01021F" stroke-width="0.392759" stroke-miterlimit="10" stroke-linecap="round" stroke-linejoin="round"/>
<path d="M186.587 183.181C186.587 183.181 185.761 176.842 189.087 177.148C192.418 177.454 186.587 183.181 186.587 183.181Z" stroke="#01021F" stroke-width="0.392759" stroke-miterlimit="10" stroke-linecap="round" stroke-linejoin="round"/>
<path d="M186.531 183.221C186.531 183.221 185.848 183.722 185.264 185.745" stroke="#01021F" stroke-width="0.392759" stroke-miterlimit="10" stroke-linecap="round" stroke-linejoin="round"/>
<path d="M188.415 182.883C188.415 182.883 187.219 183.885 187.195 185.403" stroke="#01021F" stroke-width="0.392759" stroke-miterlimit="10" stroke-linecap="round" stroke-linejoin="round"/>
<path d="M144.398 140.666C144.398 140.666 149.736 132.61 158.714 144.939C167.693 157.267 180.367 177.211 180.367 177.211L167.999 185.808L143.134 151.648L144.398 140.666Z" fill="#141414"/>
<path d="M148.861 138.079L121.771 139.998L130.63 152.558H145.884L148.861 138.079Z" fill="#141414"/>
<path d="M107.857 138.067C107.857 138.067 106.561 141.795 106.712 146.282C106.962 153.754 113.143 159.66 120.615 159.66H142.661L142.8 141.811L128.071 138.595L107.857 138.067Z" fill="#141414"/>
<path d="M153.865 200.152L143.873 201.667L141.095 185.665L151.087 184.151L153.865 200.152Z" fill="#FDB5AE"/>
<path d="M141.962 198.781L155.36 196.746C155.36 196.746 156.023 199.616 160.332 199.417C164.64 199.218 167.323 201.098 168.118 204.059L141.552 208.089C141.552 208.093 141.23 204.488 141.962 198.781Z" fill="white"/>
<path d="M168.12 204.066L141.552 208.097L141.84 209.995L168.408 205.964L168.12 204.066Z" fill="#01021F"/>
<path d="M141.548 203.32C141.548 203.32 146.659 203.07 147.291 207.223" stroke="#01021F" stroke-width="0.392759" stroke-miterlimit="10"/>
<path d="M157.005 198.805C157.005 198.805 152.776 193.264 150.435 195.339C147.673 197.787 157.005 198.805 157.005 198.805Z" stroke="#01021F" stroke-width="0.392759" stroke-miterlimit="10" stroke-linecap="round" stroke-linejoin="round"/>
<path d="M157.009 198.809C157.009 198.809 159.279 192.831 162.065 194.675C164.851 196.523 157.009 198.809 157.009 198.809Z" stroke="#01021F" stroke-width="0.392759" stroke-miterlimit="10" stroke-linecap="round" stroke-linejoin="round"/>
<path d="M156.937 198.817C156.937 198.817 156.099 198.936 154.628 200.442" stroke="#01021F" stroke-width="0.392759" stroke-miterlimit="10" stroke-linecap="round" stroke-linejoin="round"/>
<path d="M158.758 199.409C158.758 199.409 157.232 199.727 156.488 201.05" stroke="#01021F" stroke-width="0.392759" stroke-miterlimit="10" stroke-linecap="round" stroke-linejoin="round"/>
<path d="M138.011 141.807C138.011 141.807 146.33 136.89 149.024 151.902C151.719 166.914 154.414 190.391 154.414 190.391L139.533 192.724L132.081 151.131L138.011 141.807Z" fill="#141414"/>
<path d="M133.607 159.656L132.852 155.439" stroke="#473FE0" stroke-width="0.397449" stroke-miterlimit="10"/>
<path d="M135.996 106.553C135.996 106.553 140.145 116.203 142.379 126.29L151.095 131.636L144.811 140.233L137.113 136.735C135.813 136.143 134.732 135.157 134.029 133.913L126.58 120.762L135.996 106.553Z" fill="url(#paint0_radial_1159:423)"/>
<path d="M125.261 99.0333C125.261 99.0333 117.479 98.9936 111.883 105.341C106.287 111.688 107.868 129.247 107.868 138.067L129.867 138.603L136.254 109.776C136.628 108.409 136.373 106.951 135.555 105.794L134.899 104.864C133.293 102.59 130.996 100.897 128.345 100.039L125.261 99.0333Z" fill="url(#paint1_radial_1159:423)"/>
<path d="M134.788 114.021L132.081 128.27" stroke="#E8512E" stroke-width="0.397449" stroke-miterlimit="10"/>
<path d="M111.271 106.172C107.666 110.79 102.845 121.692 101.442 132.216C101.016 135.42 102.714 138.381 105.905 138.894C108.914 139.374 112.554 137.502 113.345 134.561L123.286 110.226C124.128 107.086 121.565 103.847 118.453 102.916C115.583 102.05 113.115 103.807 111.271 106.172Z" fill="url(#paint2_radial_1159:423)"/>
<path d="M116.159 127.888L121.231 113.687" stroke="#E8512E" stroke-width="0.397449" stroke-miterlimit="10"/>
<path d="M132.081 131.612C132.081 131.612 143.257 127.236 143.289 138.607L130.996 138.627L132.081 131.612Z" fill="#FDB5AE"/>
<path d="M108.763 127.622L134.673 128.337L132.447 138.599L105.563 139.025C101.788 138.21 100.85 133.588 103.501 130.782C104.721 129.494 107.038 127.212 108.763 127.622Z" fill="url(#paint3_radial_1159:423)"/>
<path d="M110.17 127.574L134.676 128.341L134.088 131.052" stroke="#E8512E" stroke-width="0.397449" stroke-miterlimit="10"/>
<path d="M120.217 138.599L143.289 138.603V141.858L120.217 141.854C119.319 141.854 118.592 141.127 118.592 140.225C118.592 139.331 119.319 138.599 120.217 138.599Z" fill="#4D3B36"/>
<path d="M138.436 141.858L144.474 114.959C144.716 114.51 145.185 114.232 145.694 114.232L181.869 114.24C182.641 114.24 183.137 115.051 182.792 115.738L178.034 138.484C177.621 140.452 175.888 141.862 173.873 141.862L138.436 141.858Z" fill="#4D3B36"/>
<path d="M161.588 131.608C163.012 131.608 164.167 130.453 164.167 129.029C164.167 127.604 163.012 126.449 161.588 126.449C160.163 126.449 159.008 127.604 159.008 129.029C159.008 130.453 160.163 131.608 161.588 131.608Z" fill="white"/>
<path d="M137.113 88.8706C136.66 90.4723 137.546 92.1296 139.092 92.5788C140.642 93.0279 142.574 92.1535 143.027 90.5518C143.48 88.95 142.594 87.2927 141.047 86.8436C139.501 86.3984 137.57 87.2728 137.113 88.8706Z" fill="#F08F8A"/>
<path d="M132.431 95.4166L131 100.846C130.348 103.286 128.54 104.196 126.223 103.544C124.243 102.988 122.32 101.438 122.987 99.3076L126.004 90.0311L132.431 95.4166Z" fill="#FDB5AE"/>
<path d="M131 100.846C131 100.846 126.064 97.0619 125.754 91.279C125.638 89.1249 132.637 94.709 132.637 94.709L131 100.846Z" fill="#F08F8A"/>
<path d="M131.771 98.1152C135.789 98.9816 139.803 96.4221 140.646 93.0557L142.367 86.0089C143.42 81.792 141.047 77.5194 137.005 76.3509C132.864 75.1546 126.636 77.2173 125.42 81.4979L125.305 87.233C124.152 92.1892 127.033 96.748 131.771 98.1152Z" fill="#FDB5AE"/>
<path d="M126.167 86.9071L126.894 87.1337L127.598 81.3587C127.582 81.1521 128.134 78.2348 128.79 78.986C129.426 79.7093 128.178 79.447 129.891 78.6879C132.407 77.5711 137.077 77.3962 140.626 79.8445C141.632 80.536 142.303 81.5734 142.522 82.7737C142.621 83.3062 142.681 84.1608 142.59 84.6377L142.824 83.3023C143.655 79.2721 140.058 75.1983 136.381 74.4908C134.967 74.2166 133.957 74.0536 132.105 73.9702C127.431 73.7595 123.047 77.1895 123.425 81.8556L124.18 85.0948L126.167 86.9071Z" fill="#21063F"/>
<path d="M121.04 86.1838C120.591 87.7696 121.775 89.4707 123.309 89.9158C124.843 90.361 126.449 89.4349 126.902 87.8491C127.351 86.2633 125.857 84.5026 124.327 84.0574C122.793 83.6163 121.493 84.602 121.04 86.1838Z" fill="#FDB5AE"/>
<path d="M124.82 88.2982C124.82 88.2982 124.987 85.989 122.777 85.8698" stroke="#160C0B" stroke-width="0.392282" stroke-miterlimit="10" stroke-linecap="round" stroke-linejoin="round"/>
<path d="M136.699 90.5955L136.85 92.2807L135.714 92.086" stroke="#160C0B" stroke-width="0.392282" stroke-miterlimit="10" stroke-linecap="round" stroke-linejoin="round"/>
<path d="M138.583 89.4986C138.488 89.8881 138.714 90.2816 139.096 90.377C139.474 90.4724 139.859 90.2299 139.955 89.8404C140.05 89.4509 139.823 89.0574 139.442 88.962C139.064 88.8627 138.679 89.1051 138.583 89.4986Z" fill="black"/>
<path d="M132.28 87.9446C132.184 88.3341 132.411 88.7275 132.792 88.8229C133.17 88.9183 133.556 88.6759 133.651 88.2864C133.746 87.8969 133.52 87.5034 133.138 87.408C132.761 87.3126 132.379 87.5511 132.28 87.9446Z" fill="black"/>
<path d="M138.571 85.9454C138.818 86.0726 139.064 86.1322 139.303 86.1997C139.537 86.2633 139.788 86.3071 139.982 86.3707C140.384 86.5058 140.817 86.8277 141.278 87.0861L141.29 87.09C141.377 87.1377 141.489 87.0821 141.536 86.9629C141.564 86.8873 141.564 86.8078 141.536 86.7443C141.401 86.4303 141.226 86.1759 141.024 85.9454C140.817 85.7188 140.582 85.5201 140.292 85.385C139.994 85.2657 139.724 85.226 139.434 85.2379C139.148 85.2618 138.869 85.3214 138.583 85.4923C138.484 85.5519 138.436 85.695 138.472 85.8142C138.488 85.8699 138.524 85.9136 138.563 85.9335L138.571 85.9454Z" fill="#21063F"/>
<path d="M135.312 84.7689C134.986 84.4311 134.625 84.2164 134.243 84.0455C133.858 83.8786 133.46 83.7832 133.019 83.7594C132.574 83.7395 132.145 83.8389 131.723 83.978C131.302 84.129 130.897 84.3198 130.495 84.602C130.4 84.6695 130.352 84.8206 130.388 84.9438C130.416 85.0352 130.479 85.0868 130.551 85.0789H130.559C131.358 84.9835 132.16 84.8325 132.872 84.8921C133.23 84.9279 133.607 85.0193 133.981 85.0868C134.358 85.1504 134.744 85.2299 135.149 85.2419H135.157C135.257 85.2458 135.352 85.1345 135.372 84.9915C135.38 84.9 135.356 84.8166 135.312 84.7689Z" fill="#21063F"/>
<path d="M137.121 93.8586L132.037 92.7179C132.037 92.7179 132.304 94.5621 134.199 94.9873C136.429 95.4921 137.121 93.8586 137.121 93.8586Z" fill="white"/>
<path d="M123.286 101.593L128.742 108.147L130.897 101.18L123.286 101.593Z" fill="#FDB5AE"/>
<path d="M142.526 82.7737C142.526 82.7737 138.246 82.6028 132.506 77.3723C132.506 77.3723 133.965 75.2977 138.273 77.42C142.586 79.5464 142.526 82.7737 142.526 82.7737Z" fill="#21063F"/>
<path d="M134.724 78.4495C134.724 78.4495 135.157 79.8604 136.91 81.6728C136.91 81.6728 132.053 82.1537 127.693 78.2666C123.333 74.3796 129.621 76.0926 129.621 76.0926L135.285 76.4861L134.724 78.4495Z" fill="#21063F"/>
<path d="M130.002 77.8851C130.002 77.8851 129.573 83.5845 126.231 84.0694L126.564 79.3556L127.932 77.428L130.002 77.8851Z" fill="#21063F"/>
<path d="M25.5889 12.1202V56.9202H16.5009V27.8642H5.23685V21.0162C13.1302 21.1869 17.5035 18.2216 18.3569 12.1202H25.5889Z" fill="url(#paint4_radial_1159:423)" fill-opacity="0.2"/>
<defs>
<radialGradient id="paint0_radial_1159:423" cx="0" cy="0" r="1" gradientUnits="userSpaceOnUse" gradientTransform="translate(137.776 148.288) rotate(-108.658) scale(51.6939 447.72)">
<stop stop-color="#FF920A"/>
<stop offset="1" stop-color="#FF5317"/>
</radialGradient>
<radialGradient id="paint1_radial_1159:423" cx="0" cy="0" r="1" gradientUnits="userSpaceOnUse" gradientTransform="translate(112.842 112.668) rotate(40.4078) scale(44.9411 389.092)">
<stop stop-color="#FF920A"/>
<stop offset="1" stop-color="#FF5317"/>
</radialGradient>
<radialGradient id="paint2_radial_1159:423" cx="0" cy="0" r="1" gradientUnits="userSpaceOnUse" gradientTransform="translate(112.412 104.781) rotate(67.2288) scale(50.0819 408.507)">
<stop stop-color="#FF920A"/>
<stop offset="1" stop-color="#FF5317"/>
</radialGradient>
<radialGradient id="paint3_radial_1159:423" cx="0" cy="0" r="1" gradientUnits="userSpaceOnUse" gradientTransform="translate(107.59 133.299) rotate(18.2883) scale(28.523 152.18)">
<stop stop-color="#FF920A"/>
<stop offset="1" stop-color="#FF5317"/>
</radialGradient>
<radialGradient id="paint4_radial_1159:423" cx="0" cy="0" r="1" gradientUnits="userSpaceOnUse" gradientTransform="translate(6.66789 32.9203) rotate(59.189) scale(58.2439 458.817)">
<stop stop-color="#FF920A"/>
<stop offset="1" stop-color="#FF5317"/>
</radialGradient>
</defs>
</svg>
