<svg width="252" height="148" viewBox="0 0 252 148" fill="none" xmlns="http://www.w3.org/2000/svg">
<path d="M7.61845 118.875C7.61845 120.842 6.04455 122.44 4.105 122.44C2.16545 122.44 0.591553 120.842 0.591553 118.875C0.591553 116.908 2.16545 115.31 4.105 115.31C6.04455 115.31 7.61845 116.908 7.61845 118.875Z" stroke="white" stroke-width="0.829833" stroke-miterlimit="10"/>
<path d="M240.201 44.4408C240.201 46.4082 238.628 48.0059 236.688 48.0059C234.748 48.0059 233.175 46.4082 233.175 44.4408C233.175 42.4734 234.748 40.8757 236.688 40.8757C238.628 40.8757 240.201 42.4694 240.201 44.4408Z" stroke="white" stroke-width="0.829833" stroke-miterlimit="10"/>
<path d="M128.737 4.9582C128.737 6.39299 127.592 7.55354 126.177 7.55354C124.762 7.55354 123.618 6.38901 123.618 4.9582C123.618 3.52738 124.762 2.36285 126.177 2.36285C127.592 2.36285 128.737 3.52341 128.737 4.9582Z" stroke="white" stroke-width="0.829833" stroke-miterlimit="10"/>
<path d="M246.489 140.448H222.483C221.804 140.448 221.251 139.896 221.251 139.216C221.251 138.537 221.804 137.984 222.483 137.984H246.489C247.169 137.984 247.721 138.537 247.721 139.216C247.717 139.9 247.169 140.448 246.489 140.448Z" fill="#EDCDA4"/>
<path d="M231.879 12.6448H223.294C222.614 12.6448 222.062 12.0924 222.062 11.4128C222.062 10.7331 222.614 10.1807 223.294 10.1807H231.879C232.558 10.1807 233.111 10.7331 233.111 11.4128C233.111 12.0924 232.558 12.6448 231.879 12.6448Z" fill="#EDCDA4"/>
<path d="M249.907 75.7756H245.901C245.233 75.7756 244.693 75.2351 244.693 74.5674V70.7638C244.693 70.0961 245.233 69.5555 245.901 69.5555H249.907C250.575 69.5555 251.115 70.0961 251.115 70.7638V74.5674C251.115 75.2351 250.571 75.7756 249.907 75.7756Z" fill="#CB94FF"/>
<path d="M17.7812 25.4189H13.7749C13.1072 25.4189 12.5667 24.8783 12.5667 24.2106V20.407C12.5667 19.7393 13.1072 19.1988 13.7749 19.1988H17.7812C18.4489 19.1988 18.9894 19.7393 18.9894 20.407V24.2106C18.9894 24.8783 18.4489 25.4189 17.7812 25.4189Z" fill="#CB94FF"/>
<path d="M165.815 129.435L169.841 144.502L172.588 141.021L177.305 147.134L181.228 144.037L176.045 138L180.091 135.608L165.815 129.435Z" fill="white"/>
<path d="M216.541 115.751H47.2043C46.0954 115.751 45.1932 114.849 45.1932 113.74V26.79C45.1932 25.6811 46.0954 24.7789 47.2043 24.7789H216.545C217.654 24.7789 218.556 25.6811 218.556 26.79V113.736C218.552 114.849 217.654 115.751 216.541 115.751Z" fill="#F1F1F1"/>
<path d="M218.552 35.7922H45.1932V26.4244C45.1932 25.5142 45.9285 24.7789 46.8387 24.7789H216.907C217.817 24.7789 218.552 25.5142 218.552 26.4244V35.7922Z" fill="#EAD4BA"/>
<path d="M56.8822 30.6652C56.8822 31.5833 56.139 32.3226 55.2249 32.3226C54.3068 32.3226 53.5675 31.5794 53.5675 30.6652C53.5675 29.7511 54.3107 29.0079 55.2249 29.0079C56.139 29.0079 56.8822 29.7511 56.8822 30.6652Z" fill="white"/>
<path d="M63.3288 30.6652C63.3288 31.5833 62.5855 32.3226 61.6714 32.3226C60.7533 32.3226 60.014 31.5794 60.014 30.6652C60.014 29.7511 60.7573 29.0079 61.6714 29.0079C62.5855 29.0079 63.3288 29.7511 63.3288 30.6652Z" fill="white"/>
<path d="M69.7793 30.6652C69.7793 31.5833 69.0361 32.3226 68.122 32.3226C67.2078 32.3226 66.4646 31.5794 66.4646 30.6652C66.4646 29.7511 67.2078 29.0079 68.122 29.0079C69.0361 29.0079 69.7793 29.7511 69.7793 30.6652Z" fill="white"/>
<path d="M198.04 91.5424H155.831C153.792 91.5424 152.143 89.889 152.143 87.8541V55.8396C152.143 53.8007 153.796 52.1512 155.831 52.1512H198.04C200.079 52.1512 201.729 53.8046 201.729 55.8396V87.8541C201.729 89.889 200.075 91.5424 198.04 91.5424Z" stroke="#FBE0D4" stroke-width="0.397449" stroke-miterlimit="10"/>
<path d="M27.8963 73.7169H2.72586C1.63685 73.7169 0.754517 72.8346 0.754517 71.7455V46.5751C0.754517 45.4861 1.63685 44.6038 2.72586 44.6038H27.8963C28.9853 44.6038 29.8676 45.4861 29.8676 46.5751V71.7455C29.8676 72.8346 28.9853 73.7169 27.8963 73.7169Z" fill="#7F63FF"/>
<path d="M199.67 44.6594H154.706C153.347 44.6594 152.246 43.5584 152.246 42.1992V2.67685C152.246 1.31758 153.347 0.216644 154.706 0.216644H199.67C201.029 0.216644 202.13 1.31758 202.13 2.67685V42.1992C202.13 43.5584 201.025 44.6594 199.67 44.6594Z" fill="#FE6F3F"/>
<path d="M167.715 22.438H185.222" stroke="white" stroke-width="0.498719" stroke-miterlimit="10"/>
<path d="M159.659 27.8433H185.222" stroke="white" stroke-width="0.498719" stroke-miterlimit="10"/>
<path d="M159.659 15.4588H195.989" stroke="white" stroke-width="0.498719" stroke-miterlimit="10"/>
<path d="M159.174 34.0593H170.104" stroke="white" stroke-width="0.498719" stroke-miterlimit="10"/>
<path d="M173.378 34.0593H195.989" stroke="white" stroke-width="0.498719" stroke-miterlimit="10"/>
<path d="M159.174 22.438H164.062" stroke="white" stroke-width="0.498719" stroke-miterlimit="10"/>
<path d="M173.144 9.68781H185.223" stroke="white" stroke-width="0.498719" stroke-miterlimit="10"/>
<path d="M237.71 116.792H186.017V87.0751C186.017 85.7516 187.09 84.6745 188.418 84.6745H235.313C236.636 84.6745 237.713 85.7476 237.713 87.0751V116.792H237.71Z" fill="#7F63FF"/>
<path d="M186.017 108.287L198.489 98.0606L209.065 105.902L223.787 91.2006L237.71 102.846V113.211C237.71 114.587 236.593 115.703 235.218 115.703H188.509C187.134 115.703 186.017 114.587 186.017 113.211V108.287Z" fill="#FFD446"/>
<path d="M208.068 100.708C209.927 100.708 211.434 99.2005 211.434 97.3412C211.434 95.482 209.927 93.9749 208.068 93.9749C206.209 93.9749 204.701 95.482 204.701 97.3412C204.701 99.2005 206.209 100.708 208.068 100.708Z" fill="white"/>
<path d="M29.0132 65.7679H2.54309V51.718C2.54309 50.3945 3.6162 49.3174 4.94368 49.3174H26.6166C27.9401 49.3174 29.0172 50.3906 29.0172 51.718V65.7679H29.0132Z" fill="#7F63FF"/>
<path d="M2.54309 65.2075L8.93009 59.9691L14.3473 63.9833L21.8869 56.4556L29.0172 62.4174V67.7233C29.0172 68.4268 28.4448 68.9991 27.7413 68.9991H3.8189C3.11542 68.9991 2.54309 68.4268 2.54309 67.7233V65.2075Z" fill="#FFD446"/>
<path d="M13.8345 57.5288C14.7872 57.5288 15.5595 56.7565 15.5595 55.8038C15.5595 54.8512 14.7872 54.0789 13.8345 54.0789C12.8819 54.0789 12.1096 54.8512 12.1096 55.8038C12.1096 56.7565 12.8819 57.5288 13.8345 57.5288Z" fill="white"/>
<path d="M107.366 143.402H25.1023C23.755 143.402 22.662 142.309 22.662 140.961V91.936C22.662 90.5887 23.755 89.4957 25.1023 89.4957H107.366C108.714 89.4957 109.807 90.5887 109.807 91.936V140.965C109.807 142.309 108.714 143.402 107.366 143.402Z" fill="#EAD4BA"/>
<path d="M45.2171 107.055L44.2791 106.892C44.1678 106.483 44.0088 106.093 43.7942 105.727L44.3387 104.948C44.5374 104.662 44.5056 104.273 44.2592 104.026L43.6988 103.466C43.4484 103.224 43.0589 103.196 42.7767 103.398L41.9977 103.943C41.6321 103.732 41.2386 103.569 40.8332 103.458L40.6702 102.5C40.6106 102.162 40.3205 101.912 39.9747 101.904H39.1679C38.8181 101.904 38.5161 102.154 38.4564 102.5L38.2935 103.434C37.8841 103.545 37.4946 103.704 37.129 103.919L36.3539 103.398C36.0678 103.2 35.6783 103.231 35.4319 103.478L34.8715 104.038C34.625 104.285 34.5893 104.674 34.792 104.96L35.3365 105.739C35.1258 106.105 34.9629 106.498 34.8516 106.904L33.9176 107.067C33.5718 107.126 33.3214 107.425 33.3214 107.778V108.573C33.3214 108.923 33.5718 109.225 33.9176 109.285L34.8516 109.448C34.9629 109.857 35.1219 110.246 35.3365 110.612L34.792 111.391C34.5932 111.677 34.625 112.067 34.8715 112.313L35.4319 112.874C35.6783 113.12 36.0678 113.156 36.3539 112.953L37.1329 112.409C37.4986 112.619 37.8921 112.782 38.2975 112.893L38.4604 113.827C38.52 114.173 38.8181 114.424 39.1719 114.424H39.9787C40.3284 114.424 40.6305 114.173 40.6901 113.827L40.8531 112.893C41.2624 112.782 41.6519 112.623 42.0176 112.409L42.7767 112.941C43.0629 113.14 43.4524 113.108 43.6988 112.862L44.2592 112.301C44.5056 112.055 44.5414 111.665 44.3387 111.379L43.7942 110.596C44.0048 110.231 44.1678 109.837 44.2791 109.432L45.2171 109.269C45.5628 109.209 45.8132 108.911 45.8132 108.557V107.762C45.8132 107.409 45.5589 107.111 45.2171 107.055ZM39.5693 110.298C38.3849 110.298 37.4271 109.34 37.4271 108.156C37.4271 106.971 38.3849 106.014 39.5693 106.014C40.7537 106.014 41.7116 106.971 41.7116 108.156C41.7116 108.16 41.7116 108.164 41.7116 108.168C41.7036 109.344 40.7458 110.298 39.5693 110.298Z" fill="url(#paint0_radial_1159:423)"/>
<path d="M53.6232 106.232H75.9002" stroke="white" stroke-width="0.525825" stroke-miterlimit="10"/>
<path d="M35.0662 120.676H93.8409" stroke="white" stroke-width="0.525825" stroke-miterlimit="10"/>
<path d="M35.0662 128.752H93.8409" stroke="white" stroke-width="0.525825" stroke-miterlimit="10"/>
<path d="M53.6232 112.719H65.3837" stroke="white" stroke-width="0.525825" stroke-miterlimit="10"/>
<path d="M72.1405 112.719H93.4318" stroke="white" stroke-width="0.525825" stroke-miterlimit="10"/>
<path d="M147.453 116.852L139.369 122.913L129.353 110.127L137.437 104.066L147.453 116.852Z" fill="#FDB5AE"/>
<path d="M136.32 121.276L147.163 113.144C147.163 113.144 149.106 115.358 152.806 113.144C156.511 110.93 159.762 111.316 161.86 113.549L140.362 129.67C140.366 129.674 138.375 126.649 136.32 121.276Z" fill="white"/>
<path d="M161.87 113.56L140.37 129.68L141.522 131.216L163.022 115.096L161.87 113.56Z" fill="#01021F"/>
<path d="M138.105 125.469C138.105 125.469 142.489 122.83 145.009 126.192" stroke="#01021F" stroke-width="0.392759" stroke-miterlimit="10"/>
<path d="M149.587 114.177C149.587 114.177 143.24 111.296 142.159 114.233C140.883 117.695 149.587 114.177 149.587 114.177Z" stroke="#01021F" stroke-width="0.392759" stroke-miterlimit="10" stroke-linecap="round" stroke-linejoin="round"/>
<path d="M149.587 114.181C149.587 114.181 148.761 107.842 152.087 108.148C155.418 108.454 149.587 114.181 149.587 114.181Z" stroke="#01021F" stroke-width="0.392759" stroke-miterlimit="10" stroke-linecap="round" stroke-linejoin="round"/>
<path d="M149.531 114.221C149.531 114.221 148.848 114.722 148.264 116.745" stroke="#01021F" stroke-width="0.392759" stroke-miterlimit="10" stroke-linecap="round" stroke-linejoin="round"/>
<path d="M151.415 113.883C151.415 113.883 150.219 114.885 150.195 116.403" stroke="#01021F" stroke-width="0.392759" stroke-miterlimit="10" stroke-linecap="round" stroke-linejoin="round"/>
<path d="M107.398 71.666C107.398 71.666 112.736 63.6098 121.714 75.9386C130.693 88.2675 143.367 108.211 143.367 108.211L130.999 116.808L106.134 82.6476L107.398 71.666Z" fill="#141414"/>
<path d="M111.861 69.0787L84.7712 70.9984L93.6304 83.5577H108.884L111.861 69.0787Z" fill="#141414"/>
<path d="M70.8566 69.0667C70.8566 69.0667 69.5609 72.7948 69.712 77.282C69.9623 84.754 76.1427 90.6601 83.6147 90.6601H105.661L105.8 72.8107L91.0709 69.5953L70.8566 69.0667Z" fill="#141414"/>
<path d="M116.865 131.152L106.873 132.667L104.095 116.665L114.087 115.151L116.865 131.152Z" fill="#FDB5AE"/>
<path d="M104.962 129.781L118.36 127.746C118.36 127.746 119.023 130.616 123.332 130.417C127.64 130.218 130.323 132.098 131.118 135.059L104.552 139.089C104.552 139.093 104.23 135.488 104.962 129.781Z" fill="white"/>
<path d="M131.12 135.066L104.552 139.097L104.84 140.995L131.408 136.964L131.12 135.066Z" fill="#01021F"/>
<path d="M104.548 134.32C104.548 134.32 109.659 134.07 110.291 138.223" stroke="#01021F" stroke-width="0.392759" stroke-miterlimit="10"/>
<path d="M120.005 129.805C120.005 129.805 115.776 124.264 113.435 126.339C110.673 128.787 120.005 129.805 120.005 129.805Z" stroke="#01021F" stroke-width="0.392759" stroke-miterlimit="10" stroke-linecap="round" stroke-linejoin="round"/>
<path d="M120.009 129.809C120.009 129.809 122.279 123.831 125.065 125.675C127.851 127.523 120.009 129.809 120.009 129.809Z" stroke="#01021F" stroke-width="0.392759" stroke-miterlimit="10" stroke-linecap="round" stroke-linejoin="round"/>
<path d="M119.937 129.817C119.937 129.817 119.099 129.936 117.628 131.442" stroke="#01021F" stroke-width="0.392759" stroke-miterlimit="10" stroke-linecap="round" stroke-linejoin="round"/>
<path d="M121.758 130.409C121.758 130.409 120.232 130.727 119.488 132.05" stroke="#01021F" stroke-width="0.392759" stroke-miterlimit="10" stroke-linecap="round" stroke-linejoin="round"/>
<path d="M101.011 72.8067C101.011 72.8067 109.33 67.8903 112.024 82.9019C114.719 97.9136 117.414 121.391 117.414 121.391L102.533 123.724L95.0811 82.1309L101.011 72.8067Z" fill="#141414"/>
<path d="M96.6071 90.6561L95.8519 86.4392" stroke="#473FE0" stroke-width="0.397449" stroke-miterlimit="10"/>
<path d="M98.9959 37.553C98.9959 37.553 103.145 47.2031 105.379 57.2903L114.095 62.636L107.811 71.2329L100.113 67.7353C98.8131 67.1431 97.732 66.1574 97.0285 64.9134L89.5803 51.7618L98.9959 37.553Z" fill="url(#paint1_radial_1159:423)"/>
<path d="M88.2608 30.0333C88.2608 30.0333 80.4788 29.9935 74.8827 36.3408C69.2866 42.688 70.8684 60.2473 70.8684 69.0667L92.8672 69.6033L99.2542 40.7763C99.6278 39.4091 99.3735 37.9505 98.5547 36.7939L97.8989 35.8638C96.2932 33.5904 93.996 31.8973 91.345 31.0388L88.2608 30.0333Z" fill="url(#paint2_radial_1159:423)"/>
<path d="M97.7876 45.0211L95.0809 59.2697" stroke="#E8512E" stroke-width="0.397449" stroke-miterlimit="10"/>
<path d="M74.2707 37.1715C70.6658 41.7899 65.8447 52.6919 64.4418 63.2163C64.0165 66.4198 65.7136 69.3808 68.9051 69.8935C71.9138 70.3744 75.5544 68.5024 76.3453 65.5613L86.2855 41.2255C87.1281 38.0857 84.5646 34.8465 81.4526 33.9164C78.583 33.05 76.1148 34.8067 74.2707 37.1715Z" fill="url(#paint3_radial_1159:423)"/>
<path d="M79.1592 58.8881L84.2306 44.6873" stroke="#E8512E" stroke-width="0.397449" stroke-miterlimit="10"/>
<path d="M95.0811 62.6122C95.0811 62.6122 106.257 58.2363 106.289 69.6073L93.9961 69.6272L95.0811 62.6122Z" fill="#FDB5AE"/>
<path d="M71.7629 58.6218L97.6726 59.3372L95.4469 69.5993L68.5634 70.0246C64.7876 69.2098 63.8497 64.5875 66.5007 61.7815C67.7208 60.4938 70.0379 58.2124 71.7629 58.6218Z" fill="url(#paint4_radial_1159:423)"/>
<path d="M73.1697 58.5741L97.6764 59.3412L97.0881 62.0518" stroke="#E8512E" stroke-width="0.397449" stroke-miterlimit="10"/>
<path d="M83.2171 69.5993L106.289 69.6033V72.8584L83.2171 72.8544C82.3189 72.8544 81.5916 72.1271 81.5916 71.2249C81.5916 70.3306 82.3189 69.5993 83.2171 69.5993Z" fill="#4D3B36"/>
<path d="M101.436 72.8584L107.474 45.9591C107.716 45.51 108.185 45.2318 108.694 45.2318L144.869 45.2397C145.641 45.2397 146.137 46.0505 145.792 46.7381L141.034 69.4841C140.621 71.4515 138.888 72.8624 136.873 72.8624L101.436 72.8584Z" fill="#4D3B36"/>
<path d="M124.588 62.6082C126.012 62.6082 127.167 61.4534 127.167 60.0288C127.167 58.6042 126.012 57.4493 124.588 57.4493C123.163 57.4493 122.008 58.6042 122.008 60.0288C122.008 61.4534 123.163 62.6082 124.588 62.6082Z" fill="white"/>
<path d="M100.113 19.8705C99.6596 21.4722 100.546 23.1296 102.092 23.5787C103.642 24.0278 105.574 23.1534 106.027 21.5517C106.48 19.95 105.594 18.2926 104.047 17.8435C102.501 17.3984 100.57 18.2728 100.113 19.8705Z" fill="#F08F8A"/>
<path d="M95.4308 26.4165L94 31.8457C93.3482 34.286 91.5398 35.1961 89.2227 34.5443C87.2434 33.9879 85.3198 32.4379 85.9875 30.3075L89.0041 21.0311L95.4308 26.4165Z" fill="#FDB5AE"/>
<path d="M93.9999 31.8456C93.9999 31.8456 89.0636 28.0619 88.7536 22.279C88.6383 20.1249 95.6374 25.709 95.6374 25.709L93.9999 31.8456Z" fill="#F08F8A"/>
<path d="M94.771 29.1152C98.7892 29.9816 102.803 27.422 103.646 24.0556L105.367 17.0089C106.42 12.7919 104.047 8.51936 100.005 7.35086C95.864 6.15454 89.636 8.2173 88.4198 12.4978L88.3045 18.233C87.1519 23.1892 90.0334 27.7479 94.771 29.1152Z" fill="#FDB5AE"/>
<path d="M89.167 17.9071L89.8943 18.1336L90.5978 12.3587C90.5819 12.152 91.1344 9.23477 91.7902 9.98594C92.4261 10.7093 91.1781 10.447 92.8911 9.68786C95.4069 8.57103 100.077 8.39615 103.626 10.8444C104.632 11.536 105.303 12.5733 105.522 13.7736C105.621 14.3062 105.681 15.1607 105.59 15.6377L105.824 14.3022C106.655 10.2721 103.058 6.19825 99.3814 5.4908C97.9665 5.21656 96.957 5.0536 95.1049 4.97014C90.4309 4.75949 86.047 8.18947 86.4246 12.8555L87.1798 16.0947L89.167 17.9071Z" fill="#21063F"/>
<path d="M84.0399 17.1837C83.5907 18.7696 84.7751 20.4706 86.3093 20.9158C87.8434 21.3609 89.4491 20.4349 89.9022 18.849C90.3513 17.2632 88.8569 15.5025 87.3268 15.0574C85.7926 14.6162 84.4929 15.6019 84.0399 17.1837Z" fill="#FDB5AE"/>
<path d="M87.8196 19.2982C87.8196 19.2982 87.9865 16.989 85.7767 16.8698" stroke="#160C0B" stroke-width="0.392282" stroke-miterlimit="10" stroke-linecap="round" stroke-linejoin="round"/>
<path d="M99.6992 21.5955L99.8502 23.2807L98.7135 23.086" stroke="#160C0B" stroke-width="0.392282" stroke-miterlimit="10" stroke-linecap="round" stroke-linejoin="round"/>
<path d="M101.583 20.4986C101.488 20.8881 101.714 21.2816 102.096 21.377C102.474 21.4724 102.859 21.2299 102.955 20.8404C103.05 20.4509 102.823 20.0574 102.442 19.962C102.064 19.8627 101.679 20.1051 101.583 20.4986Z" fill="black"/>
<path d="M95.2797 18.9446C95.1843 19.3341 95.4109 19.7275 95.7924 19.8229C96.17 19.9183 96.5555 19.6759 96.6509 19.2864C96.7463 18.8969 96.5198 18.5034 96.1382 18.408C95.7606 18.3126 95.3791 18.5511 95.2797 18.9446Z" fill="black"/>
<path d="M101.571 16.9454C101.818 17.0726 102.064 17.1322 102.303 17.1997C102.537 17.2633 102.788 17.3071 102.982 17.3707C103.384 17.5058 103.817 17.8277 104.278 18.0861L104.29 18.09C104.377 18.1377 104.489 18.0821 104.536 17.9629C104.564 17.8873 104.564 17.8078 104.536 17.7443C104.401 17.4303 104.226 17.1759 104.024 16.9454C103.817 16.7188 103.582 16.5201 103.292 16.385C102.994 16.2657 102.724 16.226 102.434 16.2379C102.148 16.2618 101.869 16.3214 101.583 16.4923C101.484 16.5519 101.436 16.695 101.472 16.8142C101.488 16.8699 101.524 16.9136 101.563 16.9335L101.571 16.9454Z" fill="#21063F"/>
<path d="M98.3122 15.7689C97.9863 15.4311 97.6247 15.2164 97.2431 15.0455C96.8576 14.8786 96.4601 14.7832 96.019 14.7594C95.5738 14.7395 95.1446 14.8389 94.7233 14.978C94.302 15.129 93.8966 15.3198 93.4952 15.602C93.3998 15.6695 93.3521 15.8206 93.3879 15.9438C93.4157 16.0352 93.4793 16.0868 93.5508 16.0789H93.5588C94.3576 15.9835 95.1605 15.8325 95.8719 15.8921C96.2296 15.9279 96.6072 16.0193 96.9808 16.0868C97.3584 16.1504 97.7439 16.2299 98.1493 16.2419H98.1572C98.2566 16.2458 98.352 16.1345 98.3719 15.9915C98.3798 15.9 98.356 15.8166 98.3122 15.7689Z" fill="#21063F"/>
<path d="M100.121 24.8586L95.0372 23.7179C95.0372 23.7179 95.3035 25.5621 97.1994 25.9873C99.429 26.4921 100.121 24.8586 100.121 24.8586Z" fill="white"/>
<path d="M86.2855 32.5929L91.7425 39.1468L93.8967 32.1795L86.2855 32.5929Z" fill="#FDB5AE"/>
<path d="M105.526 13.7736C105.526 13.7736 101.246 13.6027 95.5063 8.37231C95.5063 8.37231 96.965 6.29763 101.273 8.42001C105.586 10.5464 105.526 13.7736 105.526 13.7736Z" fill="#21063F"/>
<path d="M97.7242 9.44944C97.7242 9.44944 98.1574 10.8604 99.9101 12.6728C99.9101 12.6728 95.0533 13.1537 90.6933 9.26661C86.3333 5.37957 92.6209 7.09257 92.6209 7.09257L98.2846 7.48604L97.7242 9.44944Z" fill="#21063F"/>
<path d="M93.0024 8.88505C93.0024 8.88505 92.5731 14.5845 89.2306 15.0694L89.5644 10.3556L90.9317 8.42798L93.0024 8.88505Z" fill="#21063F"/>
<defs>
<radialGradient id="paint0_radial_1159:423" cx="0" cy="0" r="1" gradientUnits="userSpaceOnUse" gradientTransform="translate(35.4613 108.164) rotate(43.3891) scale(14.2449 127.34)">
<stop stop-color="#FF920A"/>
<stop offset="1" stop-color="#FF5317"/>
</radialGradient>
<radialGradient id="paint1_radial_1159:423" cx="0" cy="0" r="1" gradientUnits="userSpaceOnUse" gradientTransform="translate(100.776 79.2875) rotate(-108.658) scale(51.6939 447.72)">
<stop stop-color="#FF920A"/>
<stop offset="1" stop-color="#FF5317"/>
</radialGradient>
<radialGradient id="paint2_radial_1159:423" cx="0" cy="0" r="1" gradientUnits="userSpaceOnUse" gradientTransform="translate(75.8419 43.6678) rotate(40.4078) scale(44.9411 389.092)">
<stop stop-color="#FF920A"/>
<stop offset="1" stop-color="#FF5317"/>
</radialGradient>
<radialGradient id="paint3_radial_1159:423" cx="0" cy="0" r="1" gradientUnits="userSpaceOnUse" gradientTransform="translate(75.4125 35.7806) rotate(67.2288) scale(50.0819 408.507)">
<stop stop-color="#FF920A"/>
<stop offset="1" stop-color="#FF5317"/>
</radialGradient>
<radialGradient id="paint4_radial_1159:423" cx="0" cy="0" r="1" gradientUnits="userSpaceOnUse" gradientTransform="translate(70.5902 64.299) rotate(18.2883) scale(28.523 152.18)">
<stop stop-color="#FF920A"/>
<stop offset="1" stop-color="#FF5317"/>
</radialGradient>
</defs>
</svg>
