<svg width="13" height="14" viewBox="0 0 13 14" fill="none" xmlns="http://www.w3.org/2000/svg">
<path d="M12.2171 6.05493L11.2791 5.89197C11.1678 5.4826 11.0088 5.0931 10.7942 4.72745L11.3387 3.94845C11.5374 3.66229 11.5056 3.27279 11.2592 3.02637L10.6988 2.46596C10.4484 2.22352 10.0589 2.19569 9.77672 2.39839L8.99772 2.94291C8.63207 2.73226 8.23859 2.5693 7.83319 2.45802L7.67024 1.50017C7.61062 1.16233 7.32048 0.911941 6.9747 0.903992H6.16788C5.81813 0.903992 5.51607 1.15438 5.45645 1.50017L5.2935 2.43417C4.88412 2.54546 4.49462 2.70443 4.12897 2.91905L3.35394 2.39839C3.06778 2.19967 2.67828 2.23147 2.43186 2.47789L1.87146 3.03829C1.62504 3.28471 1.58927 3.67421 1.79197 3.96037L2.33648 4.73937C2.12583 5.10502 1.96287 5.4985 1.85159 5.90389L0.917584 6.06685C0.571804 6.12647 0.321411 6.42456 0.321411 6.77829V7.57318C0.321411 7.92294 0.571804 8.22499 0.917584 8.28461L1.85159 8.44756C1.96287 8.85694 2.12185 9.24644 2.33648 9.6121L1.79197 10.3911C1.59325 10.6773 1.62504 11.0668 1.87146 11.3132L2.43186 11.8736C2.67828 12.12 3.06778 12.1558 3.35394 11.9531L4.13294 11.4086C4.4986 11.6192 4.89207 11.7822 5.29747 11.8935L5.46042 12.8275C5.52004 13.1732 5.81813 13.4236 6.17186 13.4236H6.97868C7.32843 13.4236 7.6305 13.1732 7.69011 12.8275L7.85307 11.8935C8.26244 11.7822 8.65194 11.6232 9.01759 11.4086L9.77672 11.9411C10.0629 12.1399 10.4524 12.1081 10.6988 11.8616L11.2592 11.3013C11.5056 11.0548 11.5414 10.6653 11.3387 10.3792L10.7942 9.5962C11.0048 9.23054 11.1678 8.83707 11.2791 8.43167L12.2171 8.26872C12.5628 8.2091 12.8132 7.91101 12.8132 7.55728V6.76238C12.8132 6.40865 12.5589 6.11057 12.2171 6.05493ZM6.56931 9.29811C5.38491 9.29811 4.42706 8.34025 4.42706 7.15585C4.42706 5.97146 5.38491 5.01361 6.56931 5.01361C7.7537 5.01361 8.71156 5.97146 8.71156 7.15585C8.71156 7.15983 8.71156 7.1638 8.71156 7.16778C8.70361 8.34423 7.74576 9.29811 6.56931 9.29811Z" fill="url(#paint0_radial_1054:406)"/>
<defs>
<radialGradient id="paint0_radial_1054:406" cx="0" cy="0" r="1" gradientUnits="userSpaceOnUse" gradientTransform="translate(2.46134 7.16382) rotate(43.3891) scale(14.2449 127.34)">
<stop stop-color="#FF920A"/>
<stop offset="1" stop-color="#FF5317"/>
</radialGradient>
</defs>
</svg>
