<svg width="130" height="24" viewBox="0 0 130 24" fill="none" xmlns="http://www.w3.org/2000/svg">
<path d="M31.4818 2.43869H40.2818V5.4755H34.8083V11.3973H39.1024V14.4341H34.8083V23.6963H31.4818V2.43869ZM44.901 2.43869H48.2274V20.6595H53.7011V23.6963H44.901V2.43869ZM63.1588 24C61.546 24 60.3162 23.5445 59.4695 22.6334C58.6228 21.7022 58.1994 20.3761 58.1994 18.6552V2.43869H61.5259V18.8982C61.5259 19.627 61.667 20.1534 61.9492 20.4773C62.2516 20.8012 62.675 20.9632 63.2193 20.9632C63.7637 20.9632 64.177 20.8012 64.4592 20.4773C64.7616 20.1534 64.9128 19.627 64.9128 18.8982V2.43869H68.1183V18.6552C68.1183 20.3761 67.6949 21.7022 66.8482 22.6334C66.0015 23.5445 64.7717 24 63.1588 24ZM73.5115 2.43869H77.6847L80.9204 15.1629H80.9809V2.43869H83.9445V23.6963H80.5273L76.5355 8.17826H76.4751V23.6963H73.5115V2.43869ZM89.4409 2.43869H92.7673V11.3973L97.001 2.43869H100.327L96.3659 10.2433L100.388 23.6963H96.9103L94.0979 14.2215L92.7673 16.9243V23.6963H89.4409V2.43869ZM104.986 2.43869H114.058V5.4755H108.313V11.0936H112.879V14.1304H108.313V20.6595H114.058V23.6963H104.986V2.43869ZM122.05 14.6467L118.028 2.43869H121.566L123.835 10.2433H123.895L126.163 2.43869H129.398L125.377 14.6467V23.6963H122.05V14.6467Z" fill="#121212"/>
<path d="M16.6269 0.578315C16.6269 0.259076 16.3681 0.000283373 16.0488 0.000283373C15.7296 0.000283373 15.4708 0.259078 15.4708 0.578317V3.79436C15.4708 4.1136 15.7296 4.37239 16.0488 4.37239C16.3681 4.37239 16.6269 4.1136 16.6269 3.79436V0.578315Z" fill="#121212"/>
<path fill-rule="evenodd" clip-rule="evenodd" d="M17.4356 9.33461C18.9287 9.2219 20.1051 7.9747 20.1051 6.45273V0.597545C20.1051 0.278306 19.8463 0.0195113 19.5271 0.0195113C19.2078 0.0195113 18.949 0.278306 18.949 0.597545V6.45273C18.949 7.41045 18.1726 8.18683 17.2149 8.18683H16.5668C15.6091 8.18683 14.8327 7.41045 14.8327 6.45273V0.597547C14.8327 0.278308 14.5739 0.0195113 14.2547 0.0195113C13.9354 0.0195113 13.6766 0.278308 13.6766 0.597547V6.45273C13.6766 7.95196 14.8182 9.18458 16.2795 9.3288V11.6691H15.8429C15.5237 11.6691 15.2649 11.9279 15.2649 12.2471V22.0351C15.2649 22.9091 15.9924 23.6177 16.8909 23.6177C17.7848 23.6177 18.5103 22.9164 18.5177 22.0485H18.5224V12.2471C18.5224 11.9279 18.2636 11.6691 17.9444 11.6691H17.4356V9.33461ZM16.421 12.8755C16.421 12.7159 16.5504 12.5865 16.71 12.5865H17.0773C17.2369 12.5865 17.3663 12.7159 17.3663 12.8755V22.0351H17.3617C17.3617 22.2408 17.1812 22.4616 16.8909 22.4616C16.6068 22.4616 16.4279 22.2503 16.4203 22.0485L16.421 12.8755Z" fill="#121212"/>
<path d="M17.7219 0.000283373C18.0411 0.000283373 18.2999 0.259076 18.2999 0.578315V3.79436C18.2999 4.1136 18.0411 4.37239 17.7219 4.37239C17.4026 4.37239 17.1439 4.1136 17.1439 3.79436V0.578317C17.1439 0.259078 17.4026 0.000283373 17.7219 0.000283373Z" fill="#121212"/>
<path fill-rule="evenodd" clip-rule="evenodd" d="M4.46597 9.28265C6.08909 8.90527 7.32435 6.98594 7.32435 4.67497C7.32435 2.09306 5.78245 0 3.88043 0C1.97841 0 0.436523 2.09306 0.436523 4.67497C0.436523 6.99305 1.6794 8.91708 3.3099 9.28609V11.9047H2.87334C2.5541 11.9047 2.29531 12.1635 2.29531 12.4828V22.2708C2.29531 23.1448 3.02278 23.8533 3.92129 23.8533C4.81521 23.8533 5.54073 23.152 5.54814 22.2842H5.55282V12.4828C5.55282 12.1635 5.29402 11.9047 4.97478 11.9047H4.46597V9.28265ZM5.38487 7.295C5.84727 6.66731 6.16828 5.74477 6.16828 4.67497C6.16828 3.60518 5.84727 2.68263 5.38487 2.05494C4.92213 1.4268 4.37697 1.15607 3.88043 1.15607C3.3839 1.15607 2.83874 1.4268 2.376 2.05494C1.9136 2.68263 1.59259 3.60518 1.59259 4.67497C1.59259 5.74477 1.9136 6.66731 2.376 7.295C2.83874 7.92315 3.3839 8.19388 3.88043 8.19388C4.37697 8.19388 4.92213 7.92315 5.38487 7.295ZM4.39675 12.9666C4.39675 12.8868 4.33205 12.8221 4.25224 12.8221H3.59588C3.51607 12.8221 3.45138 12.8868 3.45138 12.9666V22.2842C3.45901 22.4859 3.63725 22.6973 3.92129 22.6973C4.21164 22.6973 4.39213 22.4764 4.39213 22.2708H4.39675V12.9666Z" fill="#121212"/>
</svg>
